<mxfile host="app.diagrams.net" agent="Mozilla/5.0 (Windows NT 10.0; Win64; x64) AppleWebKit/537.36 (KHTML, like Gecko) Chrome/141.0.0.0 Safari/537.36" version="28.2.8">
  <diagram name="Диаграмма вариантов использования - Интернет-магазин" id="85AkClXsSPZRD0gE70uU">
    <mxGraphModel dx="1426" dy="751" grid="1" gridSize="10" guides="1" tooltips="1" connect="1" arrows="1" fold="1" page="1" pageScale="1" pageWidth="827" pageHeight="1169" math="0" shadow="0">
      <root>
        <mxCell id="0" />
        <mxCell id="1" parent="0" />
        <mxCell id="21T72m46H9F7PhcDvn4g-1" value="Гость" style="shape=umlActor;verticalLabelPosition=bottom;verticalAlign=top;html=1;outlineConnect=0;" vertex="1" parent="1">
          <mxGeometry x="40" y="200" width="60" height="100" as="geometry" />
        </mxCell>
        <mxCell id="21T72m46H9F7PhcDvn4g-2" value="Клиент" style="shape=umlActor;verticalLabelPosition=bottom;verticalAlign=top;html=1;outlineConnect=0;" vertex="1" parent="1">
          <mxGeometry x="40" y="400" width="60" height="100" as="geometry" />
        </mxCell>
        <mxCell id="21T72m46H9F7PhcDvn4g-3" value="Менеджер" style="shape=umlActor;verticalLabelPosition=bottom;verticalAlign=top;html=1;outlineConnect=0;" vertex="1" parent="1">
          <mxGeometry x="40" y="600" width="60" height="100" as="geometry" />
        </mxCell>
        <mxCell id="21T72m46H9F7PhcDvn4g-4" value="Администратор" style="shape=umlActor;verticalLabelPosition=bottom;verticalAlign=top;html=1;outlineConnect=0;" vertex="1" parent="1">
          <mxGeometry x="40" y="20" width="60" height="100" as="geometry" />
        </mxCell>
        <mxCell id="21T72m46H9F7PhcDvn4g-5" value="Оконное приложение Интернет-магазина" style="swimlane;whiteSpace=wrap;html=1;" vertex="1" parent="1">
          <mxGeometry x="180" y="20" width="560" height="730" as="geometry">
            <mxRectangle x="180" y="20" width="270" height="30" as="alternateBounds" />
          </mxGeometry>
        </mxCell>
        <mxCell id="21T72m46H9F7PhcDvn4g-6" value="Просматривать каталог товаров" style="ellipse;whiteSpace=wrap;html=1;" vertex="1" parent="21T72m46H9F7PhcDvn4g-5">
          <mxGeometry x="60" y="60" width="200" height="40" as="geometry" />
        </mxCell>
        <mxCell id="21T72m46H9F7PhcDvn4g-7" value="Просматривать информацию о товаре" style="ellipse;whiteSpace=wrap;html=1;" vertex="1" parent="21T72m46H9F7PhcDvn4g-5">
          <mxGeometry x="60" y="120" width="200" height="40" as="geometry" />
        </mxCell>
        <mxCell id="21T72m46H9F7PhcDvn4g-8" value="Зарегистрироваться" style="ellipse;whiteSpace=wrap;html=1;" vertex="1" parent="21T72m46H9F7PhcDvn4g-5">
          <mxGeometry x="60" y="180" width="200" height="40" as="geometry" />
        </mxCell>
        <mxCell id="21T72m46H9F7PhcDvn4g-9" value="Войти в аккаунт" style="ellipse;whiteSpace=wrap;html=1;" vertex="1" parent="21T72m46H9F7PhcDvn4g-5">
          <mxGeometry x="60" y="240" width="200" height="40" as="geometry" />
        </mxCell>
        <mxCell id="21T72m46H9F7PhcDvn4g-10" value="Добавить товар в корзину" style="ellipse;whiteSpace=wrap;html=1;" vertex="1" parent="21T72m46H9F7PhcDvn4g-5">
          <mxGeometry x="60" y="300" width="200" height="40" as="geometry" />
        </mxCell>
        <mxCell id="21T72m46H9F7PhcDvn4g-11" value="Оформить заказ" style="ellipse;whiteSpace=wrap;html=1;" vertex="1" parent="21T72m46H9F7PhcDvn4g-5">
          <mxGeometry x="300" y="120" width="200" height="40" as="geometry" />
        </mxCell>
        <mxCell id="21T72m46H9F7PhcDvn4g-12" value="Просматривать историю заказов" style="ellipse;whiteSpace=wrap;html=1;" vertex="1" parent="21T72m46H9F7PhcDvn4g-5">
          <mxGeometry x="300" y="180" width="200" height="40" as="geometry" />
        </mxCell>
        <mxCell id="21T72m46H9F7PhcDvn4g-13" value="Управлять профилем" style="ellipse;whiteSpace=wrap;html=1;" vertex="1" parent="21T72m46H9F7PhcDvn4g-5">
          <mxGeometry x="300" y="240" width="200" height="40" as="geometry" />
        </mxCell>
        <mxCell id="21T72m46H9F7PhcDvn4g-14" value="Подтверждать заказ клиента" style="ellipse;whiteSpace=wrap;html=1;" vertex="1" parent="21T72m46H9F7PhcDvn4g-5">
          <mxGeometry x="60" y="480" width="200" height="40" as="geometry" />
        </mxCell>
        <mxCell id="21T72m46H9F7PhcDvn4g-15" value="Отменять существующие заказы" style="ellipse;whiteSpace=wrap;html=1;" vertex="1" parent="21T72m46H9F7PhcDvn4g-5">
          <mxGeometry x="60" y="540" width="200" height="40" as="geometry" />
        </mxCell>
        <mxCell id="21T72m46H9F7PhcDvn4g-16" value="Просматривать все заказы" style="ellipse;whiteSpace=wrap;html=1;" vertex="1" parent="21T72m46H9F7PhcDvn4g-5">
          <mxGeometry x="60" y="600" width="200" height="40" as="geometry" />
        </mxCell>
        <mxCell id="21T72m46H9F7PhcDvn4g-17" value="Управлять товарами (CRUD)" style="ellipse;whiteSpace=wrap;html=1;" vertex="1" parent="21T72m46H9F7PhcDvn4g-5">
          <mxGeometry x="300" y="420" width="200" height="40" as="geometry" />
        </mxCell>
        <mxCell id="21T72m46H9F7PhcDvn4g-18" value="Управлять пользователями" style="ellipse;whiteSpace=wrap;html=1;" vertex="1" parent="21T72m46H9F7PhcDvn4g-5">
          <mxGeometry x="300" y="480" width="200" height="40" as="geometry" />
        </mxCell>
        <mxCell id="21T72m46H9F7PhcDvn4g-19" value="Просматривать системную статистику" style="ellipse;whiteSpace=wrap;html=1;" vertex="1" parent="21T72m46H9F7PhcDvn4g-5">
          <mxGeometry x="300" y="540" width="200" height="40" as="geometry" />
        </mxCell>
        <mxCell id="21T72m46H9F7PhcDvn4g-20" value="Управлять заказами (все)" style="ellipse;whiteSpace=wrap;html=1;" vertex="1" parent="21T72m46H9F7PhcDvn4g-5">
          <mxGeometry x="300" y="600" width="200" height="40" as="geometry" />
        </mxCell>
        <mxCell id="21T72m46H9F7PhcDvn4g-21" value="" style="endArrow=plain;html=1;rounded=0;entryX=0;entryY=0.5;exitX=1;exitY=0.5;" edge="1" parent="1" source="21T72m46H9F7PhcDvn4g-1" target="21T72m46H9F7PhcDvn4g-6">
          <mxGeometry width="50" height="50" relative="1" as="geometry">
            <mxPoint x="180" y="200" as="sourcePoint" />
            <mxPoint x="230" y="150" as="targetPoint" />
          </mxGeometry>
        </mxCell>
        <mxCell id="21T72m46H9F7PhcDvn4g-22" value="" style="endArrow=plain;html=1;rounded=0;entryX=0;entryY=0.5;exitX=1;exitY=0.5;" edge="1" parent="1" source="21T72m46H9F7PhcDvn4g-1" target="21T72m46H9F7PhcDvn4g-7">
          <mxGeometry width="50" height="50" relative="1" as="geometry">
            <mxPoint x="180" y="200" as="sourcePoint" />
            <mxPoint x="230" y="150" as="targetPoint" />
          </mxGeometry>
        </mxCell>
        <mxCell id="21T72m46H9F7PhcDvn4g-23" value="" style="endArrow=plain;html=1;rounded=0;entryX=0;entryY=0.5;exitX=1;exitY=0.5;" edge="1" parent="1" source="21T72m46H9F7PhcDvn4g-1" target="21T72m46H9F7PhcDvn4g-8">
          <mxGeometry width="50" height="50" relative="1" as="geometry">
            <mxPoint x="180" y="200" as="sourcePoint" />
            <mxPoint x="230" y="150" as="targetPoint" />
          </mxGeometry>
        </mxCell>
        <mxCell id="21T72m46H9F7PhcDvn4g-24" value="" style="endArrow=plain;html=1;rounded=0;entryX=0;entryY=0.5;exitX=1;exitY=0.5;" edge="1" parent="1" source="21T72m46H9F7PhcDvn4g-1" target="21T72m46H9F7PhcDvn4g-9">
          <mxGeometry width="50" height="50" relative="1" as="geometry">
            <mxPoint x="180" y="200" as="sourcePoint" />
            <mxPoint x="230" y="150" as="targetPoint" />
          </mxGeometry>
        </mxCell>
        <mxCell id="21T72m46H9F7PhcDvn4g-25" value="" style="endArrow=plain;html=1;rounded=0;entryX=0;entryY=0.5;exitX=1;exitY=0.5;" edge="1" parent="1" source="21T72m46H9F7PhcDvn4g-1" target="21T72m46H9F7PhcDvn4g-10">
          <mxGeometry width="50" height="50" relative="1" as="geometry">
            <mxPoint x="180" y="200" as="sourcePoint" />
            <mxPoint x="230" y="150" as="targetPoint" />
          </mxGeometry>
        </mxCell>
        <mxCell id="21T72m46H9F7PhcDvn4g-26" value="" style="endArrow=plain;html=1;rounded=0;entryX=0;entryY=0.5;exitX=1;exitY=0.5;" edge="1" parent="1" source="21T72m46H9F7PhcDvn4g-2" target="21T72m46H9F7PhcDvn4g-6">
          <mxGeometry width="50" height="50" relative="1" as="geometry">
            <mxPoint x="180" y="200" as="sourcePoint" />
            <mxPoint x="230" y="150" as="targetPoint" />
          </mxGeometry>
        </mxCell>
        <mxCell id="21T72m46H9F7PhcDvn4g-27" value="" style="endArrow=plain;html=1;rounded=0;entryX=0;entryY=0.5;exitX=1;exitY=0.5;" edge="1" parent="1" source="21T72m46H9F7PhcDvn4g-2" target="21T72m46H9F7PhcDvn4g-7">
          <mxGeometry width="50" height="50" relative="1" as="geometry">
            <mxPoint x="180" y="200" as="sourcePoint" />
            <mxPoint x="230" y="150" as="targetPoint" />
          </mxGeometry>
        </mxCell>
        <mxCell id="21T72m46H9F7PhcDvn4g-28" value="" style="endArrow=plain;html=1;rounded=0;entryX=0;entryY=0.5;exitX=1;exitY=0.5;" edge="1" parent="1" source="21T72m46H9F7PhcDvn4g-2" target="21T72m46H9F7PhcDvn4g-10">
          <mxGeometry width="50" height="50" relative="1" as="geometry">
            <mxPoint x="180" y="200" as="sourcePoint" />
            <mxPoint x="230" y="150" as="targetPoint" />
          </mxGeometry>
        </mxCell>
        <mxCell id="21T72m46H9F7PhcDvn4g-29" value="" style="endArrow=plain;html=1;rounded=0;entryX=0;entryY=0.5;exitX=1;exitY=0.5;" edge="1" parent="1" source="21T72m46H9F7PhcDvn4g-2" target="21T72m46H9F7PhcDvn4g-11">
          <mxGeometry width="50" height="50" relative="1" as="geometry">
            <mxPoint x="180" y="200" as="sourcePoint" />
            <mxPoint x="230" y="150" as="targetPoint" />
          </mxGeometry>
        </mxCell>
        <mxCell id="21T72m46H9F7PhcDvn4g-30" value="" style="endArrow=plain;html=1;rounded=0;entryX=0;entryY=0.5;exitX=1;exitY=0.5;" edge="1" parent="1" source="21T72m46H9F7PhcDvn4g-2" target="21T72m46H9F7PhcDvn4g-12">
          <mxGeometry width="50" height="50" relative="1" as="geometry">
            <mxPoint x="180" y="200" as="sourcePoint" />
            <mxPoint x="230" y="150" as="targetPoint" />
          </mxGeometry>
        </mxCell>
        <mxCell id="21T72m46H9F7PhcDvn4g-31" value="" style="endArrow=plain;html=1;rounded=0;entryX=0;entryY=0.5;exitX=1;exitY=0.5;" edge="1" parent="1" source="21T72m46H9F7PhcDvn4g-2" target="21T72m46H9F7PhcDvn4g-13">
          <mxGeometry width="50" height="50" relative="1" as="geometry">
            <mxPoint x="180" y="200" as="sourcePoint" />
            <mxPoint x="230" y="150" as="targetPoint" />
          </mxGeometry>
        </mxCell>
        <mxCell id="21T72m46H9F7PhcDvn4g-32" value="" style="endArrow=plain;html=1;rounded=0;entryX=0;entryY=0.5;exitX=1;exitY=0.5;" edge="1" parent="1" source="21T72m46H9F7PhcDvn4g-3" target="21T72m46H9F7PhcDvn4g-14">
          <mxGeometry width="50" height="50" relative="1" as="geometry">
            <mxPoint x="180" y="200" as="sourcePoint" />
            <mxPoint x="230" y="150" as="targetPoint" />
          </mxGeometry>
        </mxCell>
        <mxCell id="21T72m46H9F7PhcDvn4g-33" value="" style="endArrow=plain;html=1;rounded=0;entryX=0;entryY=0.5;exitX=1;exitY=0.5;" edge="1" parent="1" source="21T72m46H9F7PhcDvn4g-3" target="21T72m46H9F7PhcDvn4g-15">
          <mxGeometry width="50" height="50" relative="1" as="geometry">
            <mxPoint x="180" y="200" as="sourcePoint" />
            <mxPoint x="230" y="150" as="targetPoint" />
          </mxGeometry>
        </mxCell>
        <mxCell id="21T72m46H9F7PhcDvn4g-34" value="" style="endArrow=plain;html=1;rounded=0;entryX=0;entryY=0.5;exitX=1;exitY=0.5;" edge="1" parent="1" source="21T72m46H9F7PhcDvn4g-3" target="21T72m46H9F7PhcDvn4g-16">
          <mxGeometry width="50" height="50" relative="1" as="geometry">
            <mxPoint x="180" y="200" as="sourcePoint" />
            <mxPoint x="230" y="150" as="targetPoint" />
          </mxGeometry>
        </mxCell>
        <mxCell id="21T72m46H9F7PhcDvn4g-35" value="" style="endArrow=plain;html=1;rounded=0;entryX=0;entryY=0.5;exitX=1;exitY=0.5;" edge="1" parent="1" source="21T72m46H9F7PhcDvn4g-4" target="21T72m46H9F7PhcDvn4g-17">
          <mxGeometry width="50" height="50" relative="1" as="geometry">
            <mxPoint x="180" y="200" as="sourcePoint" />
            <mxPoint x="230" y="150" as="targetPoint" />
          </mxGeometry>
        </mxCell>
        <mxCell id="21T72m46H9F7PhcDvn4g-36" value="" style="endArrow=plain;html=1;rounded=0;entryX=0;entryY=0.5;exitX=1;exitY=0.5;" edge="1" parent="1" source="21T72m46H9F7PhcDvn4g-4" target="21T72m46H9F7PhcDvn4g-18">
          <mxGeometry width="50" height="50" relative="1" as="geometry">
            <mxPoint x="180" y="200" as="sourcePoint" />
            <mxPoint x="230" y="150" as="targetPoint" />
          </mxGeometry>
        </mxCell>
        <mxCell id="21T72m46H9F7PhcDvn4g-37" value="" style="endArrow=plain;html=1;rounded=0;entryX=0;entryY=0.5;exitX=1;exitY=0.5;" edge="1" parent="1" source="21T72m46H9F7PhcDvn4g-4" target="21T72m46H9F7PhcDvn4g-19">
          <mxGeometry width="50" height="50" relative="1" as="geometry">
            <mxPoint x="180" y="200" as="sourcePoint" />
            <mxPoint x="230" y="150" as="targetPoint" />
          </mxGeometry>
        </mxCell>
        <mxCell id="21T72m46H9F7PhcDvn4g-38" value="" style="endArrow=plain;html=1;rounded=0;entryX=0;entryY=0.5;exitX=1;exitY=0.5;" edge="1" parent="1" source="21T72m46H9F7PhcDvn4g-4" target="21T72m46H9F7PhcDvn4g-20">
          <mxGeometry width="50" height="50" relative="1" as="geometry">
            <mxPoint x="180" y="200" as="sourcePoint" />
            <mxPoint x="230" y="150" as="targetPoint" />
          </mxGeometry>
        </mxCell>
        <mxCell id="21T72m46H9F7PhcDvn4g-39" value="" style="endArrow=block;endFill=0;endSize=8;html=1;rounded=0;entryX=0.5;entryY=1;exitX=0.5;exitY=0;" edge="1" parent="1" source="21T72m46H9F7PhcDvn4g-2" target="21T72m46H9F7PhcDvn4g-1">
          <mxGeometry width="50" height="50" relative="1" as="geometry">
            <mxPoint x="180" y="200" as="sourcePoint" />
            <mxPoint x="230" y="150" as="targetPoint" />
          </mxGeometry>
        </mxCell>
        <mxCell id="21T72m46H9F7PhcDvn4g-40" value="" style="endArrow=block;endFill=0;endSize=8;html=1;rounded=0;entryX=0.5;entryY=1;exitX=0.5;exitY=0;" edge="1" parent="1" source="21T72m46H9F7PhcDvn4g-4" target="21T72m46H9F7PhcDvn4g-3">
          <mxGeometry width="50" height="50" relative="1" as="geometry">
            <mxPoint x="180" y="200" as="sourcePoint" />
            <mxPoint x="230" y="150" as="targetPoint" />
          </mxGeometry>
        </mxCell>
        <mxCell id="21T72m46H9F7PhcDvn4g-41" value="" style="endArrow=plain;html=1;rounded=0;entryX=0;entryY=0.5;exitX=1;exitY=0.5;" edge="1" parent="1" source="21T72m46H9F7PhcDvn4g-4" target="21T72m46H9F7PhcDvn4g-14">
          <mxGeometry width="50" height="50" relative="1" as="geometry">
            <mxPoint x="180" y="200" as="sourcePoint" />
            <mxPoint x="230" y="150" as="targetPoint" />
          </mxGeometry>
        </mxCell>
        <mxCell id="21T72m46H9F7PhcDvn4g-42" value="" style="endArrow=plain;html=1;rounded=0;entryX=0;entryY=0.5;exitX=1;exitY=0.5;" edge="1" parent="1" source="21T72m46H9F7PhcDvn4g-4" target="21T72m46H9F7PhcDvn4g-15">
          <mxGeometry width="50" height="50" relative="1" as="geometry">
            <mxPoint x="180" y="200" as="sourcePoint" />
            <mxPoint x="230" y="150" as="targetPoint" />
          </mxGeometry>
        </mxCell>
        <mxCell id="21T72m46H9F7PhcDvn4g-43" value="" style="endArrow=plain;html=1;rounded=0;entryX=0;entryY=0.5;exitX=1;exitY=0.5;" edge="1" parent="1" source="21T72m46H9F7PhcDvn4g-4" target="21T72m46H9F7PhcDvn4g-16">
          <mxGeometry width="50" height="50" relative="1" as="geometry">
            <mxPoint x="180" y="200" as="sourcePoint" />
            <mxPoint x="230" y="150" as="targetPoint" />
          </mxGeometry>
        </mxCell>
        <mxCell id="21T72m46H9F7PhcDvn4g-44" value="" style="endArrow=plain;html=1;rounded=0;entryX=0;entryY=0.5;exitX=1;exitY=0.5;" edge="1" parent="1" source="21T72m46H9F7PhcDvn4g-4" target="21T72m46H9F7PhcDvn4g-11">
          <mxGeometry width="50" height="50" relative="1" as="geometry">
            <mxPoint x="180" y="200" as="sourcePoint" />
            <mxPoint x="230" y="150" as="targetPoint" />
          </mxGeometry>
        </mxCell>
        <mxCell id="21T72m46H9F7PhcDvn4g-45" value="" style="endArrow=plain;html=1;rounded=0;entryX=0;entryY=0.5;exitX=1;exitY=0.5;" edge="1" parent="1" source="21T72m46H9F7PhcDvn4g-4" target="21T72m46H9F7PhcDvn4g-12">
          <mxGeometry width="50" height="50" relative="1" as="geometry">
            <mxPoint x="180" y="200" as="sourcePoint" />
            <mxPoint x="230" y="150" as="targetPoint" />
          </mxGeometry>
        </mxCell>
        <mxCell id="21T72m46H9F7PhcDvn4g-46" value="" style="endArrow=plain;html=1;rounded=0;entryX=0;entryY=0.5;exitX=1;exitY=0.5;" edge="1" parent="1" source="21T72m46H9F7PhcDvn4g-4" target="21T72m46H9F7PhcDvn4g-13">
          <mxGeometry width="50" height="50" relative="1" as="geometry">
            <mxPoint x="180" y="200" as="sourcePoint" />
            <mxPoint x="230" y="150" as="targetPoint" />
          </mxGeometry>
        </mxCell>
      </root>
    </mxGraphModel>
  </diagram>
</mxfile>
